<?xml version="1.0" standalone="no"?>
<svg viewBox="-100 -100 200 200"  xmlns="http://www.w3.org/2000/svg">
  <circle r="100" fill="orangered"/>
  <circle r="70" fill="orange"/>

   <path id="flower" 
         d="m 0 0
           a 80 80 0 0 1 0 -80
           a 80 80 0 0 1 0 80
           a 80 80 0 0 1 60 -60
           a 80 80 0 0 1 -60 60
           a 80 80 0 0 1 80 0
           a 80 80 0 0 1 -80 0
           a 80 80 0 0 1 60 60
           a 80 80 0 0 1 -60 -60
           a 80 80 0 0 1 0 80
           a 80 80 0 0 1 0 -80
           a 80 80 0 0 1 -60 60
           a 80 80 0 0 1 60 -60
           a 80 80 0 0 1 -80 0
           a 80 80 0 0 1 80 0
           a 80 80 0 0 1 -60 -60
           a 80 80 0 0 1 60 60
           z
           "
           fill="white"
      />
  <use href="#flower" transform="rotate(20)" opacity="0.8"/>
  <circle r="15" fill="darkorange"></circle>
</svg>