<?xml version="1.0" standalone="no"?>
<svg viewBox="-100 -100 200 200" xmlns="http://www.w3.org/2000/svg">
    <!-- a rx ry x-axis-rotation large-arc-flag sweep-flag dx dy-->
  <circle r="100" fill="hotpink"/>
  <path d="m 0 -60
           a 20 20 0 1 1 20 20
           v 80
           a 20 20 0 1 1 -20 20
           a 20 20 0 1 1 -20 -20
           v -80
           a 20 20 0 1 1 20 -20
           z
           "
           fill="lightpink"
           stroke="lightpink"
           stroke-width="3"
           stroke-linejoin="round"
           transform="rotate(45)"
       />
   <path d="m 0 -60
           a 20 20 0 1 1 20 20
           v 80
           a 20 20 0 1 1 -20 20
           a 20 20 0 1 1 -20 -20
           v -80
           a 20 20 0 1 1 20 -20
           z
           "
           fill="white"
           stroke="white"
           stroke-width="3"
           stroke-linejoin="round"
           transform="rotate(135)"
      />
</svg>